<?xml version="1.0" encoding="UTF-8"?>
<svg version="1.1" xmlns="http://www.w3.org/2000/svg" width="100" height="100">
<path d="M0 0 C1.96223511 -0.01891296 1.96223511 -0.01891296 3.96411133 -0.03820801 C5.38884012 -0.0310482 6.81356399 -0.02284422 8.23828125 -0.01367188 C9.70272072 -0.01636736 11.16715844 -0.02025026 12.6315918 -0.02526855 C15.69825305 -0.03116106 18.76444774 -0.02260934 21.83105469 -0.00390625 C25.75891761 0.01888402 29.68568731 0.00575949 33.61351013 -0.01819611 C36.63676162 -0.03266128 39.65975458 -0.02804499 42.68301392 -0.01768494 C44.13107432 -0.0150196 45.57915831 -0.0182807 47.02719116 -0.02760315 C49.05197695 -0.03777847 51.07684519 -0.0195152 53.1015625 0 C54.82886597 0.00477356 54.82886597 0.00477356 56.59106445 0.00964355 C59.55078125 0.51757812 59.55078125 0.51757812 61.92150879 2.14685059 C64.05532146 5.25172627 64.05798235 7.21188839 64.06835938 10.96679688 C64.08096802 12.27495361 64.09357666 13.58311035 64.10656738 14.9309082 C64.09940758 16.355637 64.09120359 17.78036087 64.08203125 19.20507812 C64.08472674 20.6695176 64.08860963 22.13395532 64.09362793 23.59838867 C64.09952044 26.66504993 64.09096871 29.73124461 64.07226562 32.79785156 C64.04947535 36.72571449 64.06259988 40.65248418 64.08655548 44.58030701 C64.10102066 47.60355849 64.09640436 50.62655145 64.08604431 53.64981079 C64.08337897 55.09787119 64.08664007 56.54595519 64.09596252 57.99398804 C64.10613784 60.01877382 64.08787457 62.04364207 64.06835938 64.06835938 C64.065177 65.21989502 64.06199463 66.37143066 64.05871582 67.55786133 C63.55078125 70.51757812 63.55078125 70.51757812 61.92150879 72.88830566 C58.8166331 75.02211833 56.85647098 75.02477922 53.1015625 75.03515625 C51.13932739 75.05406921 51.13932739 75.05406921 49.13745117 75.07336426 C47.71272238 75.06620445 46.28799851 75.05800047 44.86328125 75.04882812 C43.39884178 75.05152361 41.93440406 75.05540651 40.4699707 75.0604248 C37.40330945 75.06631731 34.33711476 75.05776559 31.27050781 75.0390625 C27.34264489 75.01627223 23.41587519 75.02939676 19.48805237 75.05335236 C16.46480088 75.06781753 13.44180792 75.06320124 10.41854858 75.05284119 C8.97048818 75.05017585 7.52240419 75.05343695 6.07437134 75.0627594 C4.04958555 75.07293472 2.02471731 75.05467145 0 75.03515625 C-1.15153564 75.03197388 -2.30307129 75.0287915 -3.48950195 75.0255127 C-6.44921875 74.51757812 -6.44921875 74.51757812 -8.81994629 72.88830566 C-10.95375896 69.78342998 -10.95641985 67.82326786 -10.96679688 64.06835938 C-10.97940552 62.76020264 -10.99201416 61.4520459 -11.00500488 60.10424805 C-10.99784508 58.67951925 -10.98964109 57.25479538 -10.98046875 55.83007812 C-10.98316424 54.36563865 -10.98704713 52.90120093 -10.99206543 51.43676758 C-10.99795794 48.37010632 -10.98940621 45.30391164 -10.97070312 42.23730469 C-10.94791285 38.30944176 -10.96103738 34.38267207 -10.98499298 30.45484924 C-10.99945816 27.43159776 -10.99484186 24.4086048 -10.98448181 21.38534546 C-10.98181647 19.93728506 -10.98507757 18.48920106 -10.99440002 17.04116821 C-11.00457534 15.01638243 -10.98631207 12.99151418 -10.96679688 10.96679688 C-10.9636145 9.81526123 -10.96043213 8.66372559 -10.95715332 7.47729492 C-10.44921875 4.51757812 -10.44921875 4.51757812 -8.81994629 2.14685059 C-5.7150706 0.01303792 -3.75490848 0.01037703 0 0 Z M3.55078125 19.51757812 C4.21078125 20.83757813 4.87078125 22.15757813 5.55078125 23.51757812 C19.41078125 23.51757812 33.27078125 23.51757812 47.55078125 23.51757812 C48.21078125 22.19757812 48.87078125 20.87757812 49.55078125 19.51757812 C45.60142611 16.8846747 42.19572373 17.23012887 37.61328125 17.25195312 C36.73679932 17.25003967 35.86031738 17.24812622 34.95727539 17.24615479 C33.10465203 17.24479414 31.25201909 17.24848219 29.39941406 17.25683594 C26.56163136 17.26753721 23.72448173 17.25693664 20.88671875 17.24414062 C19.08723818 17.24546224 17.28775801 17.24802468 15.48828125 17.25195312 C14.6382251 17.24790466 13.78816895 17.2438562 12.91235352 17.23968506 C7.93559581 17.27344879 7.93559581 17.27344879 3.55078125 19.51757812 Z M5.55078125 34.51757812 C4.89078125 35.83757813 4.23078125 37.15757813 3.55078125 38.51757812 C5.30147982 40.67442137 5.30147982 40.67442137 7.38577271 40.75808716 C8.4982991 40.75142532 8.4982991 40.75142532 9.63330078 40.74462891 C10.4740213 40.74447784 11.31474182 40.74432678 12.18093872 40.74417114 C13.08931488 40.73384857 13.99769104 40.723526 14.93359375 40.71289062 C16.32769974 40.70864578 16.32769974 40.70864578 17.74996948 40.70431519 C20.72536975 40.69309881 23.7004716 40.66799173 26.67578125 40.64257812 C28.69009983 40.6325502 30.70442311 40.62342403 32.71875 40.61523438 C37.66287581 40.59315473 42.6067779 40.55861506 47.55078125 40.51757812 C48.21078125 39.19757812 48.87078125 37.87757812 49.55078125 36.51757812 C47.80008268 34.36073488 47.80008268 34.36073488 45.71578979 34.27706909 C44.6032634 34.28373093 44.6032634 34.28373093 43.46826172 34.29052734 C42.6275412 34.29067841 41.78682068 34.29082947 40.92062378 34.29098511 C39.55805954 34.30646896 39.55805954 34.30646896 38.16796875 34.32226562 C37.23856476 34.32509552 36.30916077 34.32792542 35.35159302 34.33084106 C32.37619275 34.34205744 29.4010909 34.36716452 26.42578125 34.39257812 C24.41146267 34.40260605 22.39713939 34.41173222 20.3828125 34.41992188 C15.43868669 34.44200152 10.4947846 34.47654119 5.55078125 34.51757812 Z M5.55078125 51.51757812 C4.89078125 52.83757812 4.23078125 54.15757813 3.55078125 55.51757812 C7.50013639 58.15048155 10.90583877 57.80502738 15.48828125 57.78320312 C16.36476318 57.78511658 17.24124512 57.78703003 18.14428711 57.78900146 C19.99691047 57.79036211 21.84954341 57.78667406 23.70214844 57.77832031 C26.53993114 57.76761904 29.37708077 57.77821961 32.21484375 57.79101562 C34.01432432 57.78969401 35.81380449 57.78713157 37.61328125 57.78320312 C38.4633374 57.78725159 39.31339355 57.79130005 40.18920898 57.79547119 C45.16596669 57.76170746 45.16596669 57.76170746 49.55078125 55.51757812 C48.89078125 54.19757813 48.23078125 52.87757812 47.55078125 51.51757812 C33.69078125 51.51757812 19.83078125 51.51757812 5.55078125 51.51757812 Z " fill="#000000" transform="translate(23.44921875,12.482421875)"/>
</svg>
