<?xml version="1.0" encoding="UTF-8"?>
<svg version="1.1" xmlns="http://www.w3.org/2000/svg" width="100" height="100">
<path d="M0 0 C1.58264648 -0.00773438 1.58264648 -0.00773438 3.19726562 -0.015625 C4.29876953 -0.00015625 5.40027344 0.0153125 6.53515625 0.03125 C7.63279297 0.01578125 8.73042969 0.0003125 9.86132812 -0.015625 C10.91771484 -0.01046875 11.97410156 -0.0053125 13.0625 0 C14.02792725 0.00451172 14.99335449 0.00902344 15.98803711 0.01367188 C19.3055126 0.6716425 20.52576692 1.9110363 22.59765625 4.53125 C22.59765625 5.19125 22.59765625 5.85125 22.59765625 6.53125 C23.23801315 6.52014694 23.87837006 6.50904388 24.53813171 6.49760437 C31.20521085 6.38695497 37.87202903 6.3115592 44.53979492 6.2565918 C47.02785843 6.23145329 49.51584813 6.19733753 52.00366211 6.15405273 C55.58075166 6.0933757 59.1568646 6.06503266 62.734375 6.04296875 C63.8460051 6.01716232 64.95763519 5.9913559 66.10295105 5.96476746 C70.66140801 5.96311326 73.74251289 6.0721332 77.79760742 8.24926758 C80.67642432 13.49813989 80.3103052 18.64015478 80.26171875 24.53125 C80.26650238 25.7996875 80.27128601 27.068125 80.2762146 28.375 C80.27961559 31.05555824 80.27292903 33.73383142 80.24951172 36.4140625 C80.22102167 39.84100855 80.23743326 43.26599681 80.26737404 46.69287109 C80.28983669 49.97239993 80.27408686 53.25169556 80.26171875 56.53125 C80.27690048 58.37203125 80.27690048 58.37203125 80.29238892 60.25 C80.16216992 69.70764326 80.16216992 69.70764326 77.2097168 72.81323242 C74.38670364 74.66999881 73.1116054 75.09199247 69.78515625 74.84375 C68.99496094 74.79863281 68.20476562 74.75351563 67.390625 74.70703125 C66.79894531 74.64902344 66.20726563 74.59101562 65.59765625 74.53125 C65.35015625 73.726875 65.10265625 72.9225 64.84765625 72.09375 C63.87348715 69.39470743 63.87348715 69.39470743 61.59765625 68.65625 C59.52442815 68.35864092 59.52442815 68.35864092 57.59765625 69.53125 C56.93765625 71.18125 56.27765625 72.83125 55.59765625 74.53125 C42.39765625 74.53125 29.19765625 74.53125 15.59765625 74.53125 C14.93765625 72.88125 14.27765625 71.23125 13.59765625 69.53125 C11.65480457 68.54507865 11.65480457 68.54507865 9.59765625 68.53125 C6.81373795 69.92320915 6.61866628 71.68700779 5.59765625 74.53125 C4.2046202 74.66782216 2.80759504 74.76396149 1.41015625 74.84375 C0.63285156 74.90175781 -0.14445313 74.95976563 -0.9453125 75.01953125 C-4.63987531 74.28531766 -6.03146115 72.38828975 -8.40234375 69.53125 C-9.02380371 66.48924255 -9.02380371 66.48924255 -9.01757812 63.06030273 C-9.02688354 61.77224228 -9.03618896 60.48418182 -9.04577637 59.15708923 C-9.03019071 57.75966286 -9.01360577 56.36224732 -8.99609375 54.96484375 C-8.99438161 53.52425741 -8.99444938 52.08366794 -8.99621582 50.64308167 C-8.99456505 47.62934412 -8.97591159 44.61635268 -8.94433594 41.6027832 C-8.90462236 37.74343825 -8.90029606 33.88506808 -8.90779877 30.02555752 C-8.91087052 27.05291339 -8.89874142 24.08048769 -8.88166809 21.1078968 C-8.87464703 19.68497144 -8.87151247 18.26202133 -8.87236023 16.8390789 C-8.87055927 14.8502509 -8.84689271 12.86147908 -8.82226562 10.87280273 C-8.81384644 9.74204819 -8.80542725 8.61129364 -8.79675293 7.4462738 C-8.01334823 1.65623779 -5.62703835 0.02632753 0 0 Z M28.59765625 27.53125 C27.5766955 31.7721639 27.24435759 35.35857914 28.59765625 39.53125 C29.11328125 40.170625 29.62890625 40.81 30.16015625 41.46875 C31.59765625 43.53125 31.59765625 43.53125 32.28515625 46.46875 C31.59765625 49.53125 31.59765625 49.53125 29.8046875 50.95703125 C28.34455243 51.83311229 26.85788953 52.66654517 25.34765625 53.453125 C24.48140625 53.98679687 24.48140625 53.98679687 23.59765625 54.53125 C23.59765625 55.19125 23.59765625 55.85125 23.59765625 56.53125 C31.51765625 56.53125 39.43765625 56.53125 47.59765625 56.53125 C45.33592389 52.00778527 44.06359692 51.47296334 39.59765625 49.53125 C39.22226189 45.5896092 39.32754257 43.92797947 41.59765625 40.59375 C44.05400545 36.8324653 44.3197313 34.94393086 43.59765625 30.53125 C41.28492183 27.6340559 41.28492183 27.6340559 38.59765625 25.53125 C38.26765625 25.20125 37.93765625 24.87125 37.59765625 24.53125 C33.58753505 24.09772338 31.34387867 24.49078946 28.59765625 27.53125 Z " fill="#000000" transform="translate(14.40234375,9.46875)"/>
</svg>
