<?xml version="1.0" encoding="UTF-8"?>
<svg version="1.1" xmlns="http://www.w3.org/2000/svg" width="100" height="100">
<path d="M0 0 C1 1 1 1 1.09765625 3.06640625 C1.08605469 3.89011719 1.07445313 4.71382812 1.0625 5.5625 C1.05347656 6.38878906 1.04445313 7.21507812 1.03515625 8.06640625 C1.02355469 8.70449219 1.01195313 9.34257812 1 10 C1.73693588 9.99777939 2.47387177 9.99555878 3.23313904 9.99327087 C10.16412769 9.97326797 17.09511204 9.95802587 24.02612209 9.94818783 C27.58977422 9.94296005 31.15340257 9.93586431 34.71704102 9.92456055 C38.81006097 9.91165824 42.9030558 9.90677094 46.99609375 9.90234375 C48.92418129 9.89460182 48.92418129 9.89460182 50.89122009 9.88670349 C52.07236893 9.88662796 53.25351776 9.88655243 54.47045898 9.88647461 C56.03932106 9.88314369 56.03932106 9.88314369 57.63987732 9.87974548 C60 10 60 10 61 11 C61.09935148 13.01950209 61.12799508 15.04250915 61.12939453 17.06445312 C61.13254669 18.36249878 61.13569885 19.66054443 61.13894653 20.9979248 C61.13715675 22.42570021 61.1351058 23.85347531 61.1328125 25.28125 C61.13348558 26.73474138 61.13445564 28.18823264 61.13571167 29.64172363 C61.13718846 32.69166127 61.1350347 35.74156966 61.13037109 38.79150391 C61.1246738 42.70930559 61.12795291 46.62703878 61.13394356 50.54483795 C61.13754969 53.54730754 61.13641035 56.54976077 61.13381577 59.55223083 C61.13314664 60.99718738 61.13397442 62.44214539 61.13629532 63.88710022 C61.13882265 65.90324883 61.13429052 67.91940262 61.12939453 69.93554688 C61.12859894 71.08502808 61.12780334 72.23450928 61.12698364 73.41882324 C61 76 61 76 60 77 C57.94600596 77.10995668 55.88819889 77.14912823 53.83129883 77.16113281 C53.18730133 77.16609772 52.54330383 77.17106262 51.87979126 77.17617798 C49.73886053 77.19083916 47.59800404 77.1976101 45.45703125 77.203125 C43.97067767 77.20887571 42.48432411 77.21463346 40.99797058 77.22039795 C37.87486423 77.2309209 34.75178371 77.23675425 31.62866211 77.24023438 C27.6349984 77.24570459 23.64167815 77.26969516 19.64812183 77.29820633 C16.57424442 77.3168775 13.50044872 77.32204081 10.42651939 77.32357025 C8.95497458 77.3265901 7.48343098 77.33459607 6.01194191 77.34775543 C3.9462586 77.3649011 1.88140035 77.36291495 -0.18432617 77.35644531 C-1.3582341 77.36009094 -2.53214203 77.36373657 -3.74162292 77.36749268 C-8.06572603 76.8798032 -11.44810347 75.44868251 -14.64453125 72.46484375 C-17.90580151 68.20010572 -19.12193151 66.15816494 -19.17700195 60.83520508 C-19.18983719 59.75680862 -19.20267242 58.67841217 -19.21589661 57.56733704 C-19.22697701 55.81117317 -19.22697701 55.81117317 -19.23828125 54.01953125 C-19.246353 52.81818039 -19.25442474 51.61682953 -19.26274109 50.3790741 C-19.2765931 47.83109993 -19.28731023 45.28310713 -19.29516602 42.73510742 C-19.31235271 38.84583087 -19.35622771 34.95740986 -19.40039062 31.06835938 C-19.41051959 28.59375626 -19.41903505 26.1191459 -19.42578125 23.64453125 C-19.44328934 22.4838765 -19.46079742 21.32322174 -19.47883606 20.12739563 C-19.46114465 13.5108405 -18.97169001 9.37063292 -15 4 C-10.59408234 -0.18562177 -5.82928124 -0.50252425 0 0 Z M1 17 C0.67 27.56 0.34 38.12 0 49 C-2.97 50.32 -5.94 51.64 -9 53 C-11.80098593 56.04813174 -12 57.41639229 -12 61.5625 C-10.80541967 65.66886988 -9.6165611 66.81324213 -6 69 C-2.77187819 70.05538919 0.21165874 70.12114491 3.59472656 70.11352539 C4.71558655 70.11344986 5.83644653 70.11337433 6.99127197 70.11329651 C8.19555847 70.10813522 9.39984497 70.10297394 10.640625 70.09765625 C11.87794373 70.0962413 13.11526245 70.09482635 14.39007568 70.09336853 C17.67144941 70.0887211 20.95277373 70.07974347 24.23413086 70.06866455 C27.58577011 70.0584152 30.93741148 70.05394859 34.2890625 70.04882812 C40.85941434 70.038651 47.42964383 70.01907523 54 70 C54 52.51 54 35.02 54 17 C36.51 17 19.02 17 1 17 Z " fill="#000000" transform="translate(29,10)"/>
<path d="M0 0 C5.61 0 11.22 0 17 0 C17 5.61 17 11.22 17 17 C13 15 13 15 10 13 C8.89591797 14.19109375 8.89591797 14.19109375 7.76953125 15.40625 C6.78453526 16.43815056 5.79882017 17.46936506 4.8125 18.5 C4.32974609 19.02464844 3.84699219 19.54929687 3.34960938 20.08984375 C1.11936725 22.39492622 -0.44706803 23.88151458 -3.625 24.5625 C-6.60912732 23.855733 -7.76052555 22.75314842 -9.8125 20.5 C-10.41707031 19.8503125 -11.02164063 19.200625 -11.64453125 18.53125 C-12.09183594 18.0259375 -12.53914063 17.520625 -13 17 C-13.721875 17.680625 -14.44375 18.36125 -15.1875 19.0625 C-18 21 -18 21 -20.8125 20.75 C-21.534375 20.5025 -22.25625 20.255 -23 20 C-23.7265625 17.76953125 -23.7265625 17.76953125 -24 15 C-22.5234375 12.76171875 -22.5234375 12.76171875 -20.375 10.6875 C-19.68148437 9.99011719 -18.98796875 9.29273438 -18.2734375 8.57421875 C-16 7 -16 7 -13.46484375 6.55078125 C-10.35137343 7.11821245 -9.29936251 8.18109214 -7.1875 10.5 C-6.58292969 11.1496875 -5.97835937 11.799375 -5.35546875 12.46875 C-4.90816406 12.9740625 -4.46085937 13.479375 -4 14 C-2.82460004 13.07347299 -1.65989423 12.13336613 -0.5 11.1875 C0.1496875 10.66542969 0.799375 10.14335938 1.46875 9.60546875 C3.34509128 8.00795167 3.34509128 8.00795167 3 5 C2.0206121 3.97980427 1.02104551 2.97850195 0 2 C0 1.34 0 0.68 0 0 Z " fill="#000000" transform="translate(60,33)"/>
<path d="M0 0 C0.81774399 0.00718552 1.63548798 0.01437103 2.47801208 0.02177429 C3.31626022 0.02223251 4.15450836 0.02269073 5.01815796 0.02316284 C6.79100458 0.0261858 8.56384854 0.03407341 10.33665466 0.0464325 C13.06030105 0.06469239 15.78360775 0.06694219 18.50730896 0.06669617 C20.22671296 0.07161112 21.94611464 0.07743935 23.66551208 0.08427429 C24.4852803 0.08538712 25.30504852 0.08649994 26.1496582 0.08764648 C31.88930783 0.13619504 31.88930783 0.13619504 33.00535583 1.25224304 C33.13035583 3.75224304 33.13035583 3.75224304 33.00535583 6.25224304 C32.00535583 7.25224304 32.00535583 7.25224304 28.31175232 7.36576843 C26.66664291 7.36560928 25.02152852 7.35991293 23.37644958 7.34989929 C22.08010338 7.34777687 22.08010338 7.34777687 20.75756836 7.34561157 C17.98596291 7.33999543 15.21443703 7.32744023 12.44285583 7.31474304 C10.56850804 7.30973012 8.69415898 7.30516685 6.81980896 7.30107117 C2.2149604 7.29002076 -2.38982837 7.27274534 -6.99464417 7.25224304 C-7.61964417 4.87724304 -7.61964417 4.87724304 -7.99464417 2.25224304 C-5.38311911 -0.35928201 -3.55582562 0.01444391 0 0 Z " fill="#000000" transform="translate(43.99464416503906,62.74775695800781)"/>
</svg>
