<?xml version="1.0" encoding="UTF-8"?>
<svg version="1.1" xmlns="http://www.w3.org/2000/svg" width="100" height="100">
<path d="M0 0 C2.91684144 -0.45878221 4.40947271 -0.39026226 6.89204407 1.25039673 C7.48494736 1.83630585 8.07785065 2.42221497 8.6887207 3.02587891 C9.70921257 4.01788803 9.70921257 4.01788803 10.75032043 5.02993774 C11.4682225 5.75482391 12.18612457 6.47971008 12.92578125 7.2265625 C13.67337204 7.96699799 14.42096283 8.70743347 15.19120789 9.4703064 C16.76823447 11.03954954 18.33888038 12.61522726 19.90356445 14.19677734 C22.30191159 16.61432682 24.72808355 19.00115917 27.15820312 21.38671875 C28.68666949 22.91489473 30.21342166 24.44478756 31.73828125 25.9765625 C32.46630447 26.68930328 33.1943277 27.40204407 33.94441223 28.13638306 C36.76270617 31.02119505 38.72947755 33.10592256 39.90771484 37 C38.46324102 41.77398987 35.24793872 44.58745368 31.73828125 48.0234375 C30.99547409 48.76961334 30.25266693 49.51578918 29.48735046 50.28457642 C27.91493568 51.85669246 26.33503685 53.42135351 24.74829102 54.97900391 C22.31951199 57.36810257 19.92143844 59.78515601 17.52539062 62.20703125 C15.99393675 63.73092661 14.46078878 65.25312176 12.92578125 66.7734375 C12.20787918 67.49832367 11.48997711 68.22320984 10.75032043 68.97006226 C10.06999252 69.63140167 9.38966461 70.29274109 8.6887207 70.97412109 C8.09581741 71.56003021 7.50291412 72.14593933 6.89204407 72.74960327 C4.47413212 74.34753074 2.84025995 74.23668355 0 74 C-0.66 72.68 -1.32 71.36 -2 70 C4.05626464 62.74491663 10.73634569 56.14877838 17.4375 49.5 C18.5620833 48.38044368 19.68643405 47.26065371 20.81054688 46.140625 C23.53769344 43.42438466 26.26795907 40.71131708 29 38 C27.72466236 35.19980675 26.41476602 33.17250511 24.21850586 31.02319336 C23.66130356 30.4725975 23.10410126 29.92200165 22.53001404 29.35472107 C21.63150475 28.4811068 21.63150475 28.4811068 20.71484375 27.58984375 C20.09855606 26.9811293 19.48226837 26.37241486 18.8473053 25.74525452 C16.882109 23.8044534 14.91062668 21.87023612 12.9375 19.9375 C10.3367372 17.38983334 7.74258336 14.83570374 5.15234375 12.27734375 C4.55131332 11.69291 3.9502829 11.10847626 3.33103943 10.5063324 C-0.88720453 6.33838641 -0.88720453 6.33838641 -2 3 C-1.34 2.01 -0.68 1.02 0 0 Z " fill="#000000" transform="translate(31,13)"/>
</svg>
